<mxfile host="app.diagrams.net" modified="2024-03-20T06:33:03.204Z" agent="Mozilla/5.0 (Windows NT 10.0; Win64; x64) AppleWebKit/537.36 (KHTML, like Gecko) Chrome/122.0.0.0 Safari/537.36" etag="ZglzLozW_YEX8cVVQNsk" version="24.0.6" type="device">
  <diagram name="페이지-1" id="TsOe2LkY9VAKg65hADkj">
    <mxGraphModel dx="2613" dy="981" grid="1" gridSize="10" guides="1" tooltips="1" connect="1" arrows="1" fold="1" page="1" pageScale="1" pageWidth="827" pageHeight="1169" math="0" shadow="0">
      <root>
        <mxCell id="0" />
        <mxCell id="1" parent="0" />
        <mxCell id="_MsitHGBIdOvJd6QSFaP-28" style="rounded=0;orthogonalLoop=1;jettySize=auto;html=1;entryX=0.5;entryY=0;entryDx=0;entryDy=0;" edge="1" parent="1" source="_MsitHGBIdOvJd6QSFaP-1" target="_MsitHGBIdOvJd6QSFaP-3">
          <mxGeometry relative="1" as="geometry" />
        </mxCell>
        <mxCell id="_MsitHGBIdOvJd6QSFaP-29" style="rounded=0;orthogonalLoop=1;jettySize=auto;html=1;" edge="1" parent="1" source="_MsitHGBIdOvJd6QSFaP-1" target="_MsitHGBIdOvJd6QSFaP-4">
          <mxGeometry relative="1" as="geometry" />
        </mxCell>
        <mxCell id="_MsitHGBIdOvJd6QSFaP-30" style="rounded=0;orthogonalLoop=1;jettySize=auto;html=1;entryX=0.5;entryY=0;entryDx=0;entryDy=0;" edge="1" parent="1" source="_MsitHGBIdOvJd6QSFaP-1" target="_MsitHGBIdOvJd6QSFaP-5">
          <mxGeometry relative="1" as="geometry" />
        </mxCell>
        <mxCell id="_MsitHGBIdOvJd6QSFaP-31" style="rounded=0;orthogonalLoop=1;jettySize=auto;html=1;entryX=0.5;entryY=0;entryDx=0;entryDy=0;" edge="1" parent="1" source="_MsitHGBIdOvJd6QSFaP-1" target="_MsitHGBIdOvJd6QSFaP-6">
          <mxGeometry relative="1" as="geometry" />
        </mxCell>
        <mxCell id="_MsitHGBIdOvJd6QSFaP-32" style="rounded=0;orthogonalLoop=1;jettySize=auto;html=1;entryX=0.5;entryY=0;entryDx=0;entryDy=0;" edge="1" parent="1" source="_MsitHGBIdOvJd6QSFaP-1" target="_MsitHGBIdOvJd6QSFaP-7">
          <mxGeometry relative="1" as="geometry" />
        </mxCell>
        <mxCell id="_MsitHGBIdOvJd6QSFaP-33" style="rounded=0;orthogonalLoop=1;jettySize=auto;html=1;entryX=0.5;entryY=0;entryDx=0;entryDy=0;" edge="1" parent="1" source="_MsitHGBIdOvJd6QSFaP-1" target="_MsitHGBIdOvJd6QSFaP-8">
          <mxGeometry relative="1" as="geometry" />
        </mxCell>
        <mxCell id="_MsitHGBIdOvJd6QSFaP-34" style="rounded=0;orthogonalLoop=1;jettySize=auto;html=1;entryX=0.5;entryY=0;entryDx=0;entryDy=0;" edge="1" parent="1" source="_MsitHGBIdOvJd6QSFaP-1" target="_MsitHGBIdOvJd6QSFaP-9">
          <mxGeometry relative="1" as="geometry" />
        </mxCell>
        <mxCell id="_MsitHGBIdOvJd6QSFaP-35" style="rounded=0;orthogonalLoop=1;jettySize=auto;html=1;entryX=0.5;entryY=0;entryDx=0;entryDy=0;" edge="1" parent="1" source="_MsitHGBIdOvJd6QSFaP-1" target="_MsitHGBIdOvJd6QSFaP-10">
          <mxGeometry relative="1" as="geometry" />
        </mxCell>
        <mxCell id="_MsitHGBIdOvJd6QSFaP-1" value="주문원장" style="whiteSpace=wrap;html=1;align=center;" vertex="1" parent="1">
          <mxGeometry x="-420" y="425" width="100" height="40" as="geometry" />
        </mxCell>
        <mxCell id="_MsitHGBIdOvJd6QSFaP-3" value="주문번호" style="ellipse;whiteSpace=wrap;html=1;align=center;fontStyle=4;" vertex="1" parent="1">
          <mxGeometry x="-870" y="655" width="100" height="40" as="geometry" />
        </mxCell>
        <mxCell id="_MsitHGBIdOvJd6QSFaP-4" value="거래일자" style="ellipse;whiteSpace=wrap;html=1;align=center;" vertex="1" parent="1">
          <mxGeometry x="-760" y="655" width="100" height="40" as="geometry" />
        </mxCell>
        <mxCell id="_MsitHGBIdOvJd6QSFaP-5" value="고객코드" style="ellipse;whiteSpace=wrap;html=1;align=center;" vertex="1" parent="1">
          <mxGeometry x="-650" y="655" width="100" height="40" as="geometry" />
        </mxCell>
        <mxCell id="_MsitHGBIdOvJd6QSFaP-6" value="고객명" style="ellipse;whiteSpace=wrap;html=1;align=center;" vertex="1" parent="1">
          <mxGeometry x="-540" y="655" width="100" height="40" as="geometry" />
        </mxCell>
        <mxCell id="_MsitHGBIdOvJd6QSFaP-7" value="연락처" style="ellipse;whiteSpace=wrap;html=1;align=center;" vertex="1" parent="1">
          <mxGeometry x="-430" y="655" width="100" height="40" as="geometry" />
        </mxCell>
        <mxCell id="_MsitHGBIdOvJd6QSFaP-8" value="상품코드1" style="ellipse;whiteSpace=wrap;html=1;align=center;" vertex="1" parent="1">
          <mxGeometry x="-320" y="655" width="100" height="40" as="geometry" />
        </mxCell>
        <mxCell id="_MsitHGBIdOvJd6QSFaP-9" value="상품코드2" style="ellipse;whiteSpace=wrap;html=1;align=center;" vertex="1" parent="1">
          <mxGeometry x="-210" y="655" width="100" height="40" as="geometry" />
        </mxCell>
        <mxCell id="_MsitHGBIdOvJd6QSFaP-10" value="상품코드3" style="ellipse;whiteSpace=wrap;html=1;align=center;" vertex="1" parent="1">
          <mxGeometry x="-100" y="655" width="100" height="40" as="geometry" />
        </mxCell>
        <mxCell id="_MsitHGBIdOvJd6QSFaP-36" style="rounded=0;orthogonalLoop=1;jettySize=auto;html=1;" edge="1" parent="1" source="_MsitHGBIdOvJd6QSFaP-11" target="_MsitHGBIdOvJd6QSFaP-12">
          <mxGeometry relative="1" as="geometry" />
        </mxCell>
        <mxCell id="_MsitHGBIdOvJd6QSFaP-37" style="rounded=0;orthogonalLoop=1;jettySize=auto;html=1;" edge="1" parent="1" source="_MsitHGBIdOvJd6QSFaP-11" target="_MsitHGBIdOvJd6QSFaP-13">
          <mxGeometry relative="1" as="geometry" />
        </mxCell>
        <mxCell id="_MsitHGBIdOvJd6QSFaP-38" style="rounded=0;orthogonalLoop=1;jettySize=auto;html=1;" edge="1" parent="1" source="_MsitHGBIdOvJd6QSFaP-11" target="_MsitHGBIdOvJd6QSFaP-14">
          <mxGeometry relative="1" as="geometry" />
        </mxCell>
        <mxCell id="_MsitHGBIdOvJd6QSFaP-39" style="rounded=0;orthogonalLoop=1;jettySize=auto;html=1;" edge="1" parent="1" source="_MsitHGBIdOvJd6QSFaP-11" target="_MsitHGBIdOvJd6QSFaP-15">
          <mxGeometry relative="1" as="geometry" />
        </mxCell>
        <mxCell id="_MsitHGBIdOvJd6QSFaP-11" value="주문내역" style="whiteSpace=wrap;html=1;align=center;" vertex="1" parent="1">
          <mxGeometry x="290" y="540" width="100" height="40" as="geometry" />
        </mxCell>
        <mxCell id="_MsitHGBIdOvJd6QSFaP-12" value="주문번호" style="ellipse;whiteSpace=wrap;html=1;align=center;fontStyle=4;" vertex="1" parent="1">
          <mxGeometry x="110" y="640" width="100" height="40" as="geometry" />
        </mxCell>
        <mxCell id="_MsitHGBIdOvJd6QSFaP-13" value="고객코드" style="ellipse;whiteSpace=wrap;html=1;align=center;" vertex="1" parent="1">
          <mxGeometry x="230" y="640" width="100" height="40" as="geometry" />
        </mxCell>
        <mxCell id="_MsitHGBIdOvJd6QSFaP-14" value="거래날짜" style="ellipse;whiteSpace=wrap;html=1;align=center;" vertex="1" parent="1">
          <mxGeometry x="340" y="640" width="100" height="40" as="geometry" />
        </mxCell>
        <mxCell id="_MsitHGBIdOvJd6QSFaP-15" value="상품코드" style="ellipse;whiteSpace=wrap;html=1;align=center;" vertex="1" parent="1">
          <mxGeometry x="460" y="640" width="100" height="40" as="geometry" />
        </mxCell>
        <mxCell id="_MsitHGBIdOvJd6QSFaP-40" style="rounded=0;orthogonalLoop=1;jettySize=auto;html=1;entryX=0.5;entryY=0;entryDx=0;entryDy=0;" edge="1" parent="1" source="_MsitHGBIdOvJd6QSFaP-17" target="_MsitHGBIdOvJd6QSFaP-18">
          <mxGeometry relative="1" as="geometry" />
        </mxCell>
        <mxCell id="_MsitHGBIdOvJd6QSFaP-41" style="rounded=0;orthogonalLoop=1;jettySize=auto;html=1;entryX=0.5;entryY=0;entryDx=0;entryDy=0;" edge="1" parent="1" source="_MsitHGBIdOvJd6QSFaP-17" target="_MsitHGBIdOvJd6QSFaP-19">
          <mxGeometry relative="1" as="geometry" />
        </mxCell>
        <mxCell id="_MsitHGBIdOvJd6QSFaP-42" style="rounded=0;orthogonalLoop=1;jettySize=auto;html=1;" edge="1" parent="1" source="_MsitHGBIdOvJd6QSFaP-17" target="_MsitHGBIdOvJd6QSFaP-20">
          <mxGeometry relative="1" as="geometry" />
        </mxCell>
        <mxCell id="_MsitHGBIdOvJd6QSFaP-17" value="고객정보" style="whiteSpace=wrap;html=1;align=center;" vertex="1" parent="1">
          <mxGeometry x="720" y="460" width="100" height="40" as="geometry" />
        </mxCell>
        <mxCell id="_MsitHGBIdOvJd6QSFaP-18" value="고객코드" style="ellipse;whiteSpace=wrap;html=1;align=center;fontStyle=4;" vertex="1" parent="1">
          <mxGeometry x="600" y="540" width="100" height="40" as="geometry" />
        </mxCell>
        <mxCell id="_MsitHGBIdOvJd6QSFaP-19" value="고객명" style="ellipse;whiteSpace=wrap;html=1;align=center;" vertex="1" parent="1">
          <mxGeometry x="720" y="540" width="100" height="40" as="geometry" />
        </mxCell>
        <mxCell id="_MsitHGBIdOvJd6QSFaP-20" value="연락처" style="ellipse;whiteSpace=wrap;html=1;align=center;" vertex="1" parent="1">
          <mxGeometry x="840" y="540" width="100" height="40" as="geometry" />
        </mxCell>
        <mxCell id="_MsitHGBIdOvJd6QSFaP-43" style="rounded=0;orthogonalLoop=1;jettySize=auto;html=1;" edge="1" parent="1" source="_MsitHGBIdOvJd6QSFaP-22" target="_MsitHGBIdOvJd6QSFaP-23">
          <mxGeometry relative="1" as="geometry" />
        </mxCell>
        <mxCell id="_MsitHGBIdOvJd6QSFaP-44" style="rounded=0;orthogonalLoop=1;jettySize=auto;html=1;entryX=0.5;entryY=0;entryDx=0;entryDy=0;" edge="1" parent="1" source="_MsitHGBIdOvJd6QSFaP-22" target="_MsitHGBIdOvJd6QSFaP-25">
          <mxGeometry relative="1" as="geometry" />
        </mxCell>
        <mxCell id="_MsitHGBIdOvJd6QSFaP-45" style="rounded=0;orthogonalLoop=1;jettySize=auto;html=1;" edge="1" parent="1" source="_MsitHGBIdOvJd6QSFaP-22" target="_MsitHGBIdOvJd6QSFaP-26">
          <mxGeometry relative="1" as="geometry" />
        </mxCell>
        <mxCell id="_MsitHGBIdOvJd6QSFaP-46" style="rounded=0;orthogonalLoop=1;jettySize=auto;html=1;" edge="1" parent="1" source="_MsitHGBIdOvJd6QSFaP-22" target="_MsitHGBIdOvJd6QSFaP-27">
          <mxGeometry relative="1" as="geometry" />
        </mxCell>
        <mxCell id="_MsitHGBIdOvJd6QSFaP-22" value="상품정보" style="whiteSpace=wrap;html=1;align=center;" vertex="1" parent="1">
          <mxGeometry x="1150" y="460" width="100" height="40" as="geometry" />
        </mxCell>
        <mxCell id="_MsitHGBIdOvJd6QSFaP-23" value="상품코드" style="ellipse;whiteSpace=wrap;html=1;align=center;fontStyle=4;" vertex="1" parent="1">
          <mxGeometry x="1070" y="625" width="100" height="40" as="geometry" />
        </mxCell>
        <mxCell id="_MsitHGBIdOvJd6QSFaP-25" value="상품명" style="ellipse;whiteSpace=wrap;html=1;align=center;" vertex="1" parent="1">
          <mxGeometry x="1200" y="625" width="100" height="40" as="geometry" />
        </mxCell>
        <mxCell id="_MsitHGBIdOvJd6QSFaP-26" value="품목" style="ellipse;whiteSpace=wrap;html=1;align=center;" vertex="1" parent="1">
          <mxGeometry x="1310" y="625" width="100" height="40" as="geometry" />
        </mxCell>
        <mxCell id="_MsitHGBIdOvJd6QSFaP-27" value="가격" style="ellipse;whiteSpace=wrap;html=1;align=center;" vertex="1" parent="1">
          <mxGeometry x="1420" y="625" width="100" height="40" as="geometry" />
        </mxCell>
        <mxCell id="_MsitHGBIdOvJd6QSFaP-50" value="주문내역" style="shape=rhombus;perimeter=rhombusPerimeter;whiteSpace=wrap;html=1;align=center;" vertex="1" parent="1">
          <mxGeometry x="940" y="365" width="120" height="60" as="geometry" />
        </mxCell>
        <mxCell id="_MsitHGBIdOvJd6QSFaP-52" value="" style="edgeStyle=entityRelationEdgeStyle;fontSize=12;html=1;endArrow=ERoneToMany;startArrow=ERmandOne;rounded=0;entryX=0;entryY=0.5;entryDx=0;entryDy=0;exitX=0.5;exitY=0;exitDx=0;exitDy=0;" edge="1" parent="1" source="_MsitHGBIdOvJd6QSFaP-17" target="_MsitHGBIdOvJd6QSFaP-50">
          <mxGeometry width="100" height="100" relative="1" as="geometry">
            <mxPoint x="940" y="650" as="sourcePoint" />
            <mxPoint x="1040" y="550" as="targetPoint" />
          </mxGeometry>
        </mxCell>
        <mxCell id="_MsitHGBIdOvJd6QSFaP-53" value="" style="edgeStyle=entityRelationEdgeStyle;fontSize=12;html=1;endArrow=ERoneToMany;startArrow=ERmandOne;rounded=0;entryX=1;entryY=0.5;entryDx=0;entryDy=0;exitX=0.5;exitY=0;exitDx=0;exitDy=0;" edge="1" parent="1" source="_MsitHGBIdOvJd6QSFaP-22" target="_MsitHGBIdOvJd6QSFaP-50">
          <mxGeometry width="100" height="100" relative="1" as="geometry">
            <mxPoint x="1156" y="415" as="sourcePoint" />
            <mxPoint x="1326" y="350" as="targetPoint" />
          </mxGeometry>
        </mxCell>
      </root>
    </mxGraphModel>
  </diagram>
</mxfile>
